<svg width="85" height="160" viewBox="0 0 85 160" fill="none" xmlns="http://www.w3.org/2000/svg">
<path d="M3.29932 0.00900441C2.41435 -0.0842182 1.62136 0.557622 1.52814 1.44259L0.00898979 15.8641C-0.0842329 16.749 0.557607 17.542 1.44258 17.6352C2.32755 17.7285 3.12054 17.0866 3.21376 16.2016L4.56411 3.38257L17.3832 4.73292C18.2682 4.82615 19.0611 4.18431 19.1544 3.29933C19.2476 2.41436 18.6058 1.62138 17.7208 1.52815L3.29932 0.00900441ZM60.2624 66.1951L61.8618 66.3899L61.8729 66.2985L61.8736 66.2064L60.2624 66.1951ZM30.6797 115.215L30.6797 113.604L30.6797 115.215ZM3.13052 1.61139L1.87811 2.62509C2.53089 3.43159 3.2289 4.18988 3.96607 4.90594L5.08872 3.75017L6.21137 2.5944C5.56073 1.96241 4.95021 1.29854 4.38294 0.597688L3.13052 1.61139ZM9.62831 7.35253L8.74105 8.69749C10.3842 9.78145 12.1292 10.7595 13.9362 11.6709L14.6618 10.2323L15.3874 8.79368C13.6607 7.92279 12.0292 7.00614 10.5156 6.00758L9.62831 7.35253ZM19.9276 12.6716L19.2871 14.1501C21.0501 14.9138 22.8554 15.6603 24.6573 16.4112L25.2771 14.9239L25.8969 13.4366C24.0824 12.6805 22.3047 11.9454 20.5681 11.1931L19.9276 12.6716ZM30.616 17.2034L29.9618 18.6759C31.7038 19.4498 33.4283 20.2584 35.1172 21.1291L35.8556 19.6971L36.594 18.265C34.8344 17.3577 33.0508 16.522 31.2702 15.7309L30.616 17.2034ZM40.8921 22.5771L40.0246 23.9348C41.5974 24.9397 43.1126 26.0286 44.5522 27.2263L45.5827 25.9878L46.6133 24.7492C45.0572 23.4545 43.4309 22.2871 41.7596 21.2193L40.8921 22.5771ZM49.7513 30.0123L48.5462 31.0819C49.7413 32.4283 50.8565 33.8949 51.8753 35.5032L53.2364 34.641L54.5976 33.7788C53.4831 32.0194 52.2627 30.4146 50.9563 28.9427L49.7513 30.0123ZM55.9454 39.7632L54.4682 40.4066C55.1752 42.0298 55.802 43.7765 56.3364 45.661L57.8865 45.2214L59.4367 44.7818C58.8642 42.7634 58.1894 40.8802 57.4226 39.1198L55.9454 39.7632ZM59.1454 50.8886L57.5559 51.1526C57.7072 52.0634 57.8399 53.0015 57.9532 53.968L59.5535 53.7806L61.1538 53.5931C61.0347 52.5768 60.8948 51.5876 60.7349 50.6246L59.1454 50.8886ZM59.5535 53.7806L59.8127 52.1903C58.7161 52.0116 57.6002 51.938 56.4724 51.9594L56.503 53.5704L56.5336 55.1813C57.4807 55.1633 58.402 55.2254 59.2942 55.3708L59.5535 53.7806ZM50.4771 54.5684L50.0157 53.0246C48.036 53.6163 46.0455 54.4367 44.0717 55.4431L44.8036 56.8785L45.5355 58.3139C47.362 57.3826 49.1715 56.6403 50.9385 56.1122L50.4771 54.5684ZM39.5404 60.029L38.6293 58.7001C36.9314 59.8642 35.2575 61.1492 33.6255 62.5304L34.6664 63.7603L35.7073 64.9902C37.2629 63.6737 38.8503 62.4557 40.4515 61.3579L39.5404 60.029ZM30.1676 67.9211L29.0245 66.7856C27.5574 68.2624 26.1415 69.8085 24.7924 71.4036L26.0226 72.4441L27.2529 73.4846C28.5474 71.9541 29.9052 70.4715 31.3107 69.0566L30.1676 67.9211ZM22.2522 77.2799L20.9426 76.3413C19.7067 78.0658 18.5566 79.8233 17.5099 81.5922L18.8966 82.4127L20.2833 83.2332C21.2798 81.5491 22.3781 79.8702 23.5619 78.2185L22.2522 77.2799ZM16.0411 87.846L14.5762 87.1751C13.661 89.1736 12.8981 91.1651 12.3166 93.1173L13.8609 93.5772L15.4051 94.0371C15.9382 92.2472 16.6451 90.3969 17.5061 88.5168L16.0411 87.846ZM12.6952 99.582L11.0887 99.4582C10.9088 101.792 11.0756 104.039 11.6796 106.11L13.2264 105.658L14.7732 105.207C14.2994 103.583 14.1451 101.737 14.3017 99.7059L12.6952 99.582ZM16.3443 110.855L15.2323 112.021C16.7623 113.48 18.7008 114.628 21.05 115.435L21.573 113.911L22.0961 112.387C20.1244 111.71 18.6054 110.785 17.4563 109.689L16.3443 110.855ZM27.5776 115.093L27.4452 116.699C28.472 116.783 29.5498 116.826 30.6797 116.826L30.6797 115.215L30.6797 113.604C29.6312 113.604 28.642 113.564 27.7099 113.487L27.5776 115.093ZM30.6797 115.215L30.6797 116.826C31.8373 116.826 32.9597 116.719 34.0467 116.512L33.7458 114.929L33.4449 113.346C32.5572 113.515 31.6363 113.604 30.6797 113.604L30.6797 115.215ZM39.4362 112.698L40.2767 114.073C42.1209 112.945 43.8032 111.522 45.3365 109.895L44.164 108.79L42.9914 107.684C41.6194 109.14 40.1555 110.37 38.5958 111.323L39.4362 112.698ZM47.9431 103.939L49.2908 104.822C50.4317 103.081 51.4738 101.227 52.4249 99.3129L50.982 98.5958L49.5391 97.8787C48.6354 99.6972 47.6556 101.438 46.5955 103.056L47.9431 103.939ZM53.47 92.9684L54.969 93.5594C55.7449 91.5915 56.4417 89.6081 57.0659 87.6589L55.5314 87.1675L53.997 86.6761C53.3913 88.5673 52.7178 90.4835 51.9711 92.3774L53.47 92.9684ZM57.2463 81.2585L58.8048 81.6673C59.3723 79.504 59.8483 77.4563 60.2427 75.6054L58.6669 75.2696L57.091 74.9338C56.7057 76.7421 56.241 78.7407 55.6878 80.8496L57.2463 81.2585ZM59.8117 69.2235L61.4015 69.4854C61.5606 68.5196 61.6751 67.7504 61.7501 67.2204C61.7876 66.9554 61.8152 66.7502 61.8336 66.61C61.8428 66.5399 61.8497 66.486 61.8544 66.4491C61.8567 66.4307 61.8585 66.4165 61.8597 66.4066C61.8603 66.4016 61.8608 66.3977 61.8612 66.3949C61.8613 66.3935 61.8615 66.3924 61.8616 66.3916C61.8616 66.3912 61.8617 66.3908 61.8617 66.3905C61.8617 66.3904 61.8617 66.3902 61.8618 66.3901C61.8618 66.3901 61.8618 66.39 61.8618 66.39C61.8618 66.3899 61.8618 66.3899 60.2624 66.1951C58.6629 66.0003 58.6629 66.0002 58.6629 66.0002C58.6629 66.0002 58.6629 66.0001 58.6629 66.0001C58.663 66.0001 58.663 66 58.663 66C58.663 66 58.663 66.0001 58.6629 66.0002C58.6629 66.0004 58.6628 66.001 58.6628 66.0018C58.6626 66.0033 58.6622 66.006 58.6618 66.0097C58.6608 66.0172 58.6594 66.029 58.6574 66.0449C58.6533 66.0769 58.6471 66.1256 58.6385 66.1906C58.6215 66.3205 58.5953 66.515 58.5594 66.7689C58.4875 67.2768 58.3767 68.0218 58.2219 68.9616L59.8117 69.2235ZM60.2624 66.1951L61.8736 66.2064C61.881 65.1544 61.8704 64.0994 61.8424 63.0421L60.2317 63.0847L58.621 63.1273C58.6481 64.1495 58.6583 65.1685 58.6511 66.1837L60.2624 66.1951ZM59.8718 56.8748L61.4768 56.7329C61.3844 55.6875 61.2765 54.6408 61.1538 53.5931L59.5535 53.7806L57.9532 53.968C58.0724 54.9861 58.1772 56.0025 58.2668 57.0167L59.8718 56.8748ZM59.5535 53.7806L59.0726 55.3184C60.0134 55.6126 60.9373 55.967 61.8421 56.3793L62.5102 54.9131L63.1783 53.4469C62.1543 52.9803 61.1054 52.5777 60.0343 52.2428L59.5535 53.7806ZM67.9195 58.1846L66.938 59.4623C68.4883 60.6532 69.9535 62.0336 71.3152 63.5861L72.5265 62.5236L73.7378 61.4611C72.2452 59.7593 70.6274 58.2329 68.901 56.9068L67.9195 58.1846ZM76.2777 67.6258L74.9057 68.4707C75.9434 70.1559 76.8807 71.9661 77.7039 73.8867L79.1849 73.252L80.6658 72.6172C79.7827 70.5567 78.7732 68.6056 77.6497 66.781L76.2777 67.6258ZM81.2844 79.2255L79.7329 79.6602C80.2724 81.5855 80.7064 83.5894 81.0248 85.6605L82.6174 85.4156L84.2099 85.1707C83.8721 82.9737 83.4109 80.8429 82.8359 78.7907L81.2844 79.2255ZM83.223 91.7224L81.613 91.787C81.6939 93.8006 81.6687 95.8615 81.53 97.9605L83.1377 98.0668L84.7455 98.173C84.8917 95.9611 84.9184 93.7861 84.833 91.6577L83.223 91.7224ZM82.4022 104.347L80.8132 104.081C80.4788 106.073 80.0418 108.09 79.4961 110.125L81.0524 110.543L82.6087 110.96C83.1808 108.826 83.6397 106.708 83.9912 104.614L82.4022 104.347ZM79.1357 116.575L77.6236 116.018C76.924 117.919 76.1272 119.83 75.2285 121.745L76.6871 122.43L78.1457 123.114C79.0835 121.116 79.916 119.12 80.6478 117.131L79.1357 116.575ZM73.7692 128.038L72.3708 127.238C71.3638 128.997 70.267 130.756 69.0768 132.509L70.4099 133.414L71.7431 134.319C72.9789 132.498 74.1193 130.67 75.1676 128.838L73.7692 128.038ZM66.6542 138.537L65.3894 137.538C64.134 139.129 62.7974 140.712 61.3768 142.285L62.5722 143.365L63.7677 144.445C65.2358 142.82 66.6187 141.183 67.9191 139.535L66.6542 138.537ZM58.184 147.924L57.0579 146.772C55.6024 148.194 54.0737 149.604 52.4694 151L53.527 152.215L54.5845 153.431C56.2349 151.995 57.8094 150.543 59.31 149.077L58.184 147.924ZM48.6366 156.242L47.6458 154.971C46.8243 155.612 45.9858 156.249 45.13 156.882L46.0879 158.177L47.0459 159.473C47.9236 158.824 48.7841 158.17 49.6274 157.513L48.6366 156.242Z" fill="#B8C6CE"/>
</svg>
